<svg xmlns="http://www.w3.org/2000/svg" width="17.622" height="19.847" viewBox="0 0 17.622 19.847"><defs><style>.a{fill:#424453;}.b{fill:#fff;}</style></defs><g transform="translate(0 0)"><g transform="translate(0 0)"><path class="a" d="M.661,19.845A.661.661,0,0,1,0,19.183V.661A.661.661,0,0,1,.661,0h16.3a.661.661,0,0,1,.661.661V16.352a.661.661,0,0,1-.549.661L.774,19.845a.662.662,0,0,1-.112,0ZM1.323,1.323V18.4L16.3,15.8V1.323ZM16.961,16.352Z" transform="translate(0 0)"/><path class="a" d="M17.451,40.563a.661.661,0,0,1-.661-.661v-6.84a.661.661,0,0,1,.661-.661h5.193a.661.661,0,0,1,.661.661v5.953a.661.661,0,0,1-1.323,0V33.723h-3.87V39.9A.661.661,0,0,1,17.451,40.563Z" transform="translate(-11.237 -21.684)"/><rect class="a" width="12.052" height="3" transform="translate(2.785 2.669)"/><path class="b" d="M14.83,10.27h.886v.341H15.23v.251h.42v.331h-.42v.281h.486v.337H14.83Z" transform="translate(-9.925 -6.873)"/><path class="b" d="M19.372,10.189s-.513.867-.562.946a.453.453,0,0,1-.377.235A.4.4,0,0,1,18,10.956a.413.413,0,0,1,.407-.413.661.661,0,0,1,.456.241l.2-.331a.82.82,0,0,0-.661-.3.81.81,0,0,0-.824.794.79.79,0,0,0,.741.81.873.873,0,0,0,.721-.258H19.4v.232h.384V10.189Zm.043.992H19.21l.205-.347Z" transform="translate(-11.765 -6.792)"/><path class="b" d="M24.838,11.811V10.637H24.53V10.27h1.015v.367h-.308v1.174Z" transform="translate(-16.417 -6.873)"/><path class="b" d="M28.66,11.223h-.413v.589h-.4V10.27h.4v.585h.413V10.27h.4v1.541h-.4Z" transform="translate(-18.639 -6.873)"/><path class="b" d="M31.87,11.811V10.27h.394v1.2h.466v.341Z" transform="translate(-21.329 -6.873)"/><path class="b" d="M34.018,10.4a.82.82,0,0,1,1.134,0,.781.781,0,0,1,.241.566.8.8,0,0,1-.807.8A.784.784,0,0,1,34,11.524a.814.814,0,0,1-.222-.575.764.764,0,0,1,.238-.559m.569.992a.425.425,0,1,0-.4-.42.43.43,0,0,0,.413.433" transform="translate(-22.607 -6.807)"/><path class="b" d="M38.55,11.811V10.27h.361l.6.857V10.27h.4v1.541h-.351l-.609-.86v.86Z" transform="translate(-25.8 -6.873)"/><path class="b" d="M10.62,11.8V10.261h.559a.817.817,0,0,1,.609.185.83.83,0,0,1,0,1.164.7.7,0,0,1-.556.192Zm1.009-.777a.4.4,0,0,0-.45-.433H11.02v.873h.159c.3,0,.45-.136.45-.44" transform="translate(-7.107 -6.864)"/></g></g></svg>