<svg xmlns="http://www.w3.org/2000/svg" width="19.42" height="20.288" viewBox="0 0 19.42 20.288"><defs><style>.a{fill:#424453;}</style></defs><g transform="translate(0 0.022)"><g transform="translate(0 -0.022)"><path class="a" d="M19.167.157a.712.712,0,0,0-.576-.171l-18,2.982A.712.712,0,0,0,0,3.679V16.545a.712.712,0,0,0,.829.712l2.309-.381v2.679a.708.708,0,0,0,1.178.534l4.807-4.209,9.7-1.6a.712.712,0,0,0,.6-.712V.7a.712.712,0,0,0-.253-.541ZM18,12.965,8.689,14.506a.736.736,0,0,0-.356.167L4.561,17.986V16.029a.711.711,0,0,0-.712-.712H3.732l-2.309.391V4.273L18,1.537Z" transform="translate(0 0.022)"/><path class="a" d="M20.261,27.093a4.028,4.028,0,0,0,.74-.064,4.27,4.27,0,0,0,3.465-3.537.534.534,0,0,0-1.039-.149,3.2,3.2,0,0,1-5.942,1.05.534.534,0,1,0-.936.516,4.27,4.27,0,0,0,3.711,2.185Z" transform="translate(-10.618 -14.796)"/><path class="a" d="M18.64,16.9a1.032,1.032,0,1,0-.774-.17,1.035,1.035,0,0,0,.774.17Z" transform="translate(-11.225 -9.554)"/><path class="a" d="M30.114,14.88a1.035,1.035,0,1,0-.776-.17A1.035,1.035,0,0,0,30.114,14.88Z" transform="translate(-18.614 -8.254)"/></g></g></svg>